<svg id="svg" version="1.1" xmlns="http://www.w3.org/2000/svg" xmlns:xlink="http://www.w3.org/1999/xlink" width="400" height="400" viewBox="0, 0, 400,400"><g id="svgg"><path id="path0" d="M2.500 147.398 C 2.108 147.844,2.000 156.099,2.000 185.783 L 2.000 223.600 35.200 223.600 C 57.067 223.600,68.400 223.463,68.400 223.200 C 68.400 222.980,68.760 222.800,69.200 222.800 C 69.640 222.800,70.000 222.620,70.000 222.400 C 70.000 222.180,70.360 222.000,70.800 222.000 C 71.240 222.000,71.600 221.820,71.600 221.600 C 71.600 221.380,71.875 221.200,72.211 221.200 C 73.004 221.200,76.400 217.804,76.400 217.011 C 76.400 216.675,76.580 216.400,76.800 216.400 C 77.020 216.400,77.200 216.040,77.200 215.600 C 77.200 215.160,77.380 214.800,77.600 214.800 C 77.820 214.800,78.000 214.260,78.000 213.600 C 78.000 212.940,78.180 212.400,78.400 212.400 C 78.648 212.400,78.800 214.533,78.800 218.000 L 78.800 223.600 117.200 223.600 L 155.600 223.600 155.600 218.400 C 155.600 215.200,155.754 213.200,156.000 213.200 C 156.220 213.200,156.400 213.740,156.400 214.400 C 156.400 215.060,156.580 215.600,156.800 215.600 C 157.020 215.600,157.200 215.873,157.200 216.207 C 157.200 216.999,162.201 222.000,162.993 222.000 C 163.327 222.000,163.600 222.180,163.600 222.400 C 163.600 222.620,164.140 222.800,164.800 222.800 C 165.460 222.800,166.000 222.980,166.000 223.200 C 166.000 223.463,175.467 223.600,193.600 223.600 C 211.733 223.600,221.200 223.463,221.200 223.200 C 221.200 222.980,221.700 222.800,222.312 222.800 C 222.965 222.800,223.661 222.470,224.000 222.000 C 224.317 221.560,224.812 221.200,225.099 221.200 C 225.778 221.200,229.200 217.778,229.200 217.099 C 229.200 216.812,229.560 216.317,230.000 216.000 C 230.470 215.661,230.800 214.965,230.800 214.312 C 230.800 213.700,230.980 213.200,231.200 213.200 C 231.446 213.200,231.600 215.200,231.600 218.400 L 231.600 223.600 264.800 223.600 C 286.667 223.600,298.000 223.463,298.000 223.200 C 298.000 222.980,298.360 222.800,298.800 222.800 C 299.240 222.800,299.600 222.620,299.600 222.400 C 299.600 222.180,299.960 222.000,300.400 222.000 C 300.840 222.000,301.200 221.820,301.200 221.600 C 301.200 221.380,301.475 221.200,301.811 221.200 C 302.604 221.200,306.000 217.804,306.000 217.011 C 306.000 216.675,306.180 216.400,306.400 216.400 C 306.620 216.400,306.800 216.040,306.800 215.600 C 306.800 215.160,306.980 214.800,307.200 214.800 C 307.420 214.800,307.600 214.260,307.600 213.600 C 307.600 212.940,307.780 212.400,308.000 212.400 C 308.248 212.400,308.400 214.533,308.400 218.000 L 308.400 223.600 326.000 223.600 L 343.600 223.600 343.600 209.200 L 343.600 194.800 346.604 194.800 L 349.608 194.800 363.600 208.800 C 371.295 216.500,377.863 222.800,378.196 222.800 C 378.528 222.800,378.800 222.980,378.800 223.200 C 378.800 223.457,382.600 223.600,389.400 223.600 C 396.200 223.600,400.000 223.457,400.000 223.200 C 400.000 222.945,396.694 222.797,390.900 222.791 C 378.937 222.780,381.410 224.234,364.433 207.228 L 350.430 193.200 346.420 193.200 L 342.410 193.200 342.305 207.900 L 342.200 222.600 335.052 222.709 C 330.120 222.785,327.734 222.677,327.352 222.360 C 326.778 221.884,326.477 150.508,327.043 149.033 C 327.406 148.087,387.341 148.070,390.591 149.015 C 393.484 149.856,396.683 152.189,398.491 154.777 L 400.000 156.937 400.000 155.497 C 400.000 154.705,399.730 153.787,399.400 153.457 C 399.070 153.127,398.800 152.651,398.800 152.400 C 398.800 151.774,397.776 150.800,397.117 150.800 C 396.820 150.800,396.317 150.440,396.000 150.000 C 395.683 149.560,395.103 149.200,394.712 149.200 C 394.320 149.200,394.000 149.020,394.000 148.800 C 394.000 148.580,393.640 148.400,393.200 148.400 C 392.760 148.400,392.400 148.220,392.400 148.000 C 392.400 147.778,391.333 147.600,390.000 147.600 C 388.667 147.600,387.600 147.422,387.600 147.200 C 387.600 146.937,377.067 146.800,356.800 146.800 L 326.000 146.800 326.000 176.400 L 326.000 206.000 317.200 206.000 L 308.400 206.000 308.400 197.200 C 308.400 191.600,308.255 188.400,308.000 188.400 C 307.780 188.400,307.600 187.860,307.600 187.200 C 307.600 186.540,307.420 186.000,307.200 186.000 C 306.980 186.000,306.800 185.640,306.800 185.200 C 306.800 184.760,306.620 184.400,306.400 184.400 C 306.180 184.400,306.000 184.126,306.000 183.791 C 306.000 182.999,301.801 178.800,301.009 178.800 C 300.674 178.800,300.400 178.620,300.400 178.400 C 300.400 178.180,300.040 178.000,299.600 178.000 C 299.160 178.000,298.800 177.820,298.800 177.600 C 298.800 177.380,297.900 177.200,296.800 177.200 C 295.700 177.200,294.800 177.020,294.800 176.800 C 294.800 176.538,286.933 176.400,272.000 176.400 L 249.200 176.400 249.200 170.800 L 249.200 165.200 278.800 165.200 L 308.400 165.200 308.400 156.000 L 308.400 146.800 277.600 146.800 C 257.333 146.800,246.800 146.937,246.800 147.200 C 246.800 147.422,245.733 147.600,244.400 147.600 C 243.067 147.600,242.000 147.778,242.000 148.000 C 242.000 148.220,241.640 148.400,241.200 148.400 C 240.760 148.400,240.400 148.580,240.400 148.800 C 240.400 149.020,240.080 149.200,239.688 149.200 C 239.297 149.200,238.717 149.560,238.400 150.000 C 238.083 150.440,237.585 150.800,237.294 150.800 C 236.607 150.800,234.800 152.607,234.800 153.294 C 234.800 153.585,234.440 154.083,234.000 154.400 C 233.530 154.739,233.200 155.435,233.200 156.088 C 233.200 156.700,233.020 157.200,232.800 157.200 C 232.580 157.200,232.400 157.740,232.400 158.400 C 232.400 159.060,232.220 159.600,232.000 159.600 C 231.780 159.600,231.600 159.240,231.600 158.800 C 231.600 158.360,231.420 158.000,231.200 158.000 C 230.980 158.000,230.800 157.460,230.800 156.800 C 230.800 156.140,230.620 155.600,230.400 155.600 C 230.180 155.600,230.000 155.327,230.000 154.993 C 230.000 154.201,224.999 149.200,224.207 149.200 C 223.873 149.200,223.600 149.020,223.600 148.800 C 223.600 148.580,223.060 148.400,222.400 148.400 C 221.740 148.400,221.200 148.220,221.200 148.000 C 221.200 147.780,220.300 147.600,219.200 147.600 C 218.100 147.600,217.200 147.420,217.200 147.200 C 217.200 146.938,209.067 146.800,193.600 146.800 C 178.133 146.800,170.000 146.938,170.000 147.200 C 170.000 147.422,168.933 147.600,167.600 147.600 C 166.267 147.600,165.200 147.778,165.200 148.000 C 165.200 148.220,164.840 148.400,164.400 148.400 C 163.960 148.400,163.600 148.580,163.600 148.800 C 163.600 149.020,163.327 149.200,162.993 149.200 C 162.201 149.200,157.200 154.201,157.200 154.993 C 157.200 155.327,157.020 155.600,156.800 155.600 C 156.580 155.600,156.400 155.960,156.400 156.400 C 156.400 156.840,156.220 157.200,156.000 157.200 C 155.756 157.200,155.600 155.390,155.600 152.571 C 155.600 149.093,155.458 147.801,155.029 147.371 C 154.170 146.513,80.230 146.513,79.371 147.371 C 78.932 147.811,78.800 149.200,78.800 153.371 C 78.800 156.724,78.647 158.800,78.400 158.800 C 78.180 158.800,78.000 158.260,78.000 157.600 C 78.000 156.940,77.820 156.400,77.600 156.400 C 77.380 156.400,77.200 156.040,77.200 155.600 C 77.200 155.160,77.020 154.800,76.800 154.800 C 76.580 154.800,76.400 154.525,76.400 154.189 C 76.400 153.445,73.027 150.000,72.299 150.000 C 72.012 150.000,71.517 149.640,71.200 149.200 C 70.861 148.730,70.165 148.400,69.512 148.400 C 68.900 148.400,68.400 148.220,68.400 148.000 C 68.400 147.780,67.500 147.600,66.400 147.600 C 65.300 147.600,64.400 147.420,64.400 147.200 C 64.400 146.499,3.119 146.695,2.500 147.398 M67.422 149.204 C 75.203 151.834,77.618 156.441,77.902 169.194 C 78.143 179.968,77.070 183.899,73.589 185.004 C 72.663 185.297,72.530 186.000,73.400 186.000 C 76.442 186.000,78.001 190.792,77.997 200.131 C 77.991 214.141,75.468 219.254,67.230 221.959 C 64.693 222.792,5.890 223.347,3.833 222.557 C 2.999 222.237,2.849 149.711,3.680 148.880 C 4.643 147.917,64.515 148.221,67.422 149.204 M153.910 148.736 C 154.298 148.982,154.393 150.761,154.310 156.229 L 154.200 163.400 139.706 163.505 L 125.213 163.610 124.996 164.505 C 124.876 164.997,124.828 174.760,124.889 186.200 L 125.000 207.000 139.600 207.213 C 147.630 207.329,154.249 207.464,154.309 207.513 C 154.369 207.561,154.369 210.975,154.309 215.100 L 154.200 222.600 117.200 222.600 L 80.200 222.600 80.200 215.000 L 80.200 207.400 94.700 207.295 L 109.200 207.190 109.200 185.395 L 109.200 163.600 94.600 163.600 L 80.000 163.600 80.000 156.267 C 80.000 152.233,80.120 148.813,80.267 148.667 C 80.652 148.282,153.301 148.350,153.910 148.736 M220.685 149.251 C 225.604 151.058,228.888 154.677,230.256 159.800 C 231.264 163.573,231.021 208.910,229.976 212.092 C 228.381 216.947,224.875 220.427,220.000 221.994 C 217.461 222.810,216.819 222.827,192.800 222.715 L 168.200 222.600 165.802 221.634 C 162.566 220.332,159.254 217.145,157.748 213.885 L 156.600 211.400 156.479 186.400 C 156.396 169.099,156.494 160.907,156.799 159.800 C 158.246 154.538,162.013 150.651,167.400 148.862 C 170.147 147.949,218.096 148.299,220.685 149.251 M307.357 149.033 C 307.491 149.381,307.600 152.516,307.600 156.000 C 307.600 159.484,307.491 162.619,307.357 162.967 C 307.139 163.536,304.158 163.600,277.757 163.600 L 248.400 163.600 248.400 170.788 L 248.400 177.975 271.757 177.994 C 287.394 178.006,295.558 178.155,296.457 178.445 C 304.668 181.097,307.199 185.629,307.498 198.213 C 307.867 213.725,305.437 219.133,296.830 221.959 C 294.293 222.792,235.490 223.347,233.433 222.557 C 232.564 222.224,232.476 208.367,233.338 207.652 C 233.720 207.334,242.252 207.176,262.838 207.103 L 291.800 207.000 291.800 200.200 L 291.800 193.400 268.000 193.200 L 244.200 193.000 241.579 191.726 C 237.626 189.805,235.209 186.985,233.583 182.400 C 232.899 180.473,232.583 165.401,233.150 161.750 C 234.136 155.392,237.137 151.635,243.200 149.170 C 245.789 148.117,306.956 147.986,307.357 149.033 M18.800 170.787 L 18.800 177.973 40.355 177.993 C 59.743 178.011,61.934 177.948,62.155 177.374 C 62.473 176.545,62.475 165.061,62.157 164.233 C 61.940 163.667,59.646 163.600,40.357 163.600 L 18.800 163.600 18.800 170.787 M172.048 164.142 C 171.717 164.540,171.621 170.477,171.696 185.845 L 171.800 207.000 193.503 207.103 L 215.207 207.207 215.103 185.503 L 215.000 163.800 193.752 163.697 C 176.141 163.611,172.426 163.687,172.048 164.142 M342.578 164.112 C 342.469 164.397,342.429 167.594,342.490 171.215 L 342.600 177.800 363.400 177.911 C 374.840 177.972,384.609 177.922,385.109 177.801 C 386.017 177.580,386.019 177.566,385.909 170.690 L 385.800 163.800 364.289 163.697 C 346.958 163.613,342.739 163.694,342.578 164.112 M61.200 170.800 L 61.200 176.400 40.400 176.400 L 19.600 176.400 19.600 170.800 L 19.600 165.200 40.400 165.200 L 61.200 165.200 61.200 170.800 M108.400 185.600 L 108.400 206.000 93.600 206.000 L 78.800 206.000 78.800 197.600 C 78.800 192.267,78.654 189.200,78.400 189.200 C 78.180 189.200,78.000 188.912,78.000 188.560 C 78.000 188.209,77.441 187.399,76.758 186.760 L 75.515 185.600 76.758 184.440 C 77.441 183.801,78.000 182.991,78.000 182.640 C 78.000 182.288,78.180 182.000,78.400 182.000 C 78.654 182.000,78.800 178.933,78.800 173.600 L 78.800 165.200 93.600 165.200 L 108.400 165.200 108.400 185.600 M154.800 185.600 L 154.800 206.000 140.400 206.000 L 126.000 206.000 126.000 185.600 L 126.000 165.200 140.400 165.200 L 154.800 165.200 154.800 185.600 M214.000 185.600 L 214.000 206.000 193.600 206.000 L 173.200 206.000 173.200 185.600 L 173.200 165.200 193.600 165.200 L 214.000 165.200 214.000 185.600 M384.400 170.800 L 384.400 176.400 364.000 176.400 L 343.600 176.400 343.600 170.800 L 343.600 165.200 364.000 165.200 L 384.400 165.200 384.400 170.800 M232.400 183.200 C 232.400 183.860,232.580 184.400,232.800 184.400 C 233.020 184.400,233.200 184.760,233.200 185.200 C 233.200 185.640,233.380 186.000,233.600 186.000 C 233.820 186.000,234.000 186.320,234.000 186.712 C 234.000 187.103,234.360 187.683,234.800 188.000 C 235.240 188.317,235.600 188.820,235.600 189.117 C 235.600 189.813,236.587 190.800,237.283 190.800 C 237.580 190.800,238.083 191.160,238.400 191.600 C 238.717 192.040,239.297 192.400,239.688 192.400 C 240.080 192.400,240.400 192.580,240.400 192.800 C 240.400 193.020,240.760 193.200,241.200 193.200 C 241.640 193.200,242.000 193.380,242.000 193.600 C 242.000 193.822,243.067 194.000,244.400 194.000 C 245.733 194.000,246.800 194.178,246.800 194.400 C 246.800 194.662,254.400 194.800,268.800 194.800 L 290.800 194.800 290.800 200.400 L 290.800 206.000 261.200 206.000 L 231.600 206.000 231.600 194.000 C 231.600 186.267,231.742 182.000,232.000 182.000 C 232.220 182.000,232.400 182.540,232.400 183.200 M398.400 186.900 C 394.988 191.948,391.458 193.200,380.638 193.200 C 376.327 193.200,372.800 193.261,372.800 193.335 C 372.800 193.410,375.904 196.560,379.698 200.335 L 386.596 207.200 393.298 207.200 C 398.989 207.200,400.000 207.109,400.000 206.600 C 400.000 206.092,399.022 206.000,393.596 206.000 L 387.193 206.000 381.796 200.604 C 378.828 197.636,376.400 195.116,376.400 195.004 C 376.400 194.892,378.920 194.800,382.000 194.800 C 385.467 194.800,387.600 194.648,387.600 194.400 C 387.600 194.178,388.667 194.000,390.000 194.000 C 391.333 194.000,392.400 193.822,392.400 193.600 C 392.400 193.380,392.760 193.200,393.200 193.200 C 393.640 193.200,394.000 193.020,394.000 192.800 C 394.000 192.580,394.320 192.400,394.712 192.400 C 395.103 192.400,395.683 192.040,396.000 191.600 C 396.317 191.160,396.820 190.800,397.117 190.800 C 397.776 190.800,398.800 189.826,398.800 189.200 C 398.800 188.949,399.070 188.473,399.400 188.143 C 399.874 187.669,400.311 184.755,399.900 184.814 C 399.845 184.822,399.170 185.761,398.400 186.900 M18.800 200.200 L 18.800 207.207 40.500 207.103 L 62.200 207.000 62.200 200.200 L 62.200 193.400 40.500 193.297 L 18.800 193.193 18.800 200.200 M61.200 200.400 L 61.200 206.000 40.400 206.000 L 19.600 206.000 19.600 200.400 L 19.600 194.800 40.400 194.800 L 61.200 194.800 61.200 200.400 M324.972 208.231 C 325.469 210.212,325.171 221.926,324.612 222.390 C 324.276 222.669,321.602 222.781,316.948 222.709 L 309.800 222.600 309.690 215.413 C 309.630 211.461,309.669 207.996,309.778 207.713 C 309.928 207.321,311.715 207.200,317.344 207.200 L 324.713 207.200 324.972 208.231 " stroke="none" fill="#f8f8f8" fill-rule="evenodd"></path><path id="path1" d="M3.792 185.600 C 3.792 205.950,3.840 214.275,3.900 204.100 C 3.959 193.925,3.959 177.275,3.900 167.100 C 3.840 156.925,3.792 165.250,3.792 185.600 M80.165 155.800 C 80.166 159.760,80.226 161.326,80.298 159.280 C 80.371 157.234,80.371 153.994,80.298 152.080 C 80.224 150.166,80.165 151.840,80.165 155.800 M72.600 152.800 C 73.459 153.680,74.252 154.400,74.362 154.400 C 74.472 154.400,73.859 153.680,73.000 152.800 C 72.141 151.920,71.348 151.200,71.238 151.200 C 71.128 151.200,71.741 151.920,72.600 152.800 M233.372 170.800 C 233.372 175.970,233.429 178.085,233.499 175.500 C 233.568 172.915,233.568 168.685,233.499 166.100 C 233.429 163.515,233.372 165.630,233.372 170.800 M139.200 163.192 L 124.600 163.400 124.497 185.155 C 124.393 206.981,124.450 208.023,125.749 207.988 C 125.997 207.981,125.885 207.792,125.500 207.568 C 124.847 207.188,124.800 205.701,124.800 185.380 L 124.800 163.600 139.176 163.600 C 148.329 163.600,153.643 163.455,153.800 163.200 C 153.936 162.980,153.992 162.842,153.924 162.892 C 153.856 162.943,147.230 163.078,139.200 163.192 M18.664 163.497 C 18.561 163.663,28.359 163.752,40.438 163.693 L 62.400 163.587 62.400 170.800 L 62.400 178.013 40.420 177.907 C 28.331 177.848,18.576 177.937,18.743 178.103 C 18.910 178.270,28.846 178.360,40.823 178.303 L 62.600 178.200 62.600 170.800 L 62.600 163.400 40.726 163.297 C 28.695 163.240,18.767 163.330,18.664 163.497 M87.900 163.499 C 91.915 163.565,98.485 163.565,102.500 163.499 C 106.515 163.434,103.230 163.381,95.200 163.381 C 87.170 163.381,83.885 163.434,87.900 163.499 M171.467 163.467 C 171.097 163.837,171.129 207.109,171.500 207.338 C 171.665 207.440,171.752 197.638,171.693 185.555 L 171.587 163.587 193.555 163.693 C 205.638 163.752,215.440 163.665,215.338 163.500 C 215.109 163.129,171.837 163.097,171.467 163.467 M248.262 163.500 C 248.093 163.772,269.155 163.769,296.200 163.492 C 301.920 163.434,293.516 163.344,277.524 163.293 C 261.532 163.242,248.364 163.335,248.262 163.500 M342.186 163.623 C 342.039 163.860,342.028 164.161,342.160 164.293 C 342.292 164.425,342.400 164.323,342.400 164.067 C 342.400 163.446,385.829 163.389,386.137 164.010 C 386.249 164.236,386.294 164.191,386.237 163.910 C 386.099 163.231,342.603 162.948,342.186 163.623 M215.786 185.600 C 215.786 197.370,215.837 202.185,215.900 196.300 C 215.962 190.415,215.962 180.785,215.900 174.900 C 215.837 169.015,215.786 173.830,215.786 185.600 M342.161 170.800 C 342.161 174.210,342.222 175.605,342.297 173.900 C 342.372 172.195,342.372 169.405,342.297 167.700 C 342.222 165.995,342.161 167.390,342.161 170.800 M342.163 177.690 C 342.246 178.096,346.745 178.200,364.200 178.200 C 381.655 178.200,386.154 178.096,386.237 177.690 C 386.293 177.410,386.249 177.365,386.137 177.590 C 386.002 177.862,378.643 178.000,364.200 178.000 C 349.757 178.000,342.398 177.862,342.263 177.590 C 342.151 177.365,342.107 177.410,342.163 177.690 M248.343 178.103 C 248.510 178.270,258.806 178.360,271.223 178.303 L 293.800 178.200 270.920 178.000 C 258.336 177.890,248.176 177.937,248.343 178.103 M72.071 185.467 C 72.142 185.834,72.470 186.207,72.800 186.297 C 73.293 186.432,73.302 186.392,72.849 186.075 C 72.546 185.863,72.421 185.489,72.572 185.245 C 72.724 185.000,72.643 184.800,72.394 184.800 C 72.145 184.800,72.000 185.100,72.071 185.467 M396.400 188.600 C 395.428 189.590,394.723 190.400,394.833 190.400 C 394.943 190.400,395.828 189.590,396.800 188.600 C 397.772 187.610,398.477 186.800,398.367 186.800 C 398.257 186.800,397.372 187.610,396.400 188.600 M77.044 191.400 C 77.373 192.871,77.602 193.190,77.594 192.167 C 77.591 191.745,77.405 191.130,77.182 190.800 C 76.885 190.362,76.848 190.524,77.044 191.400 M62.319 199.929 C 62.425 206.250,62.365 207.036,61.742 207.492 C 61.360 207.771,61.225 208.000,61.444 208.000 C 62.611 208.000,62.800 206.905,62.800 200.144 C 62.800 196.351,62.665 193.163,62.500 193.061 C 62.335 192.959,62.253 196.049,62.319 199.929 M291.919 199.929 C 292.025 206.250,291.965 207.036,291.342 207.492 C 290.960 207.771,290.825 208.000,291.044 208.000 C 292.211 208.000,292.400 206.905,292.400 200.144 C 292.400 196.351,292.265 193.163,292.100 193.061 C 291.935 192.959,291.853 196.049,291.919 199.929 M364.400 207.000 C 371.547 214.150,377.485 220.000,377.595 220.000 C 377.705 220.000,371.947 214.150,364.800 207.000 C 357.653 199.850,351.715 194.000,351.605 194.000 C 351.495 194.000,357.253 199.850,364.400 207.000 M342.180 207.800 C 342.180 215.280,342.234 218.283,342.299 214.474 C 342.365 210.665,342.365 204.545,342.299 200.874 C 342.233 197.203,342.179 200.320,342.180 207.800 M379.684 200.988 C 383.360 204.716,386.420 207.683,386.484 207.583 C 386.548 207.482,383.540 204.433,379.800 200.806 L 373.000 194.212 379.684 200.988 M80.178 208.114 C 80.069 208.397,80.034 211.772,80.100 215.614 L 80.220 222.600 80.310 215.333 C 80.377 209.964,80.531 208.014,80.900 207.865 C 81.292 207.707,81.289 207.656,80.887 207.632 C 80.606 207.614,80.286 207.831,80.178 208.114 M233.378 208.114 C 233.269 208.397,233.230 211.772,233.291 215.614 L 233.402 222.600 233.601 215.100 C 233.796 207.740,233.775 207.078,233.378 208.114 M309.778 208.114 C 309.669 208.397,309.634 211.772,309.700 215.614 L 309.820 222.600 309.910 215.333 C 309.977 209.964,310.131 208.014,310.500 207.865 C 310.892 207.707,310.889 207.656,310.487 207.632 C 310.206 207.614,309.886 207.831,309.778 208.114 " stroke="none" fill="#e4e4e4" fill-rule="evenodd"></path><path id="path2" d="M19.300 148.700 C 27.825 148.760,41.775 148.760,50.300 148.700 C 58.825 148.640,51.850 148.590,34.800 148.590 C 17.750 148.590,10.775 148.640,19.300 148.700 M98.730 148.700 C 108.922 148.759,125.482 148.759,135.530 148.700 C 145.579 148.640,137.240 148.592,117.000 148.592 C 96.760 148.592,88.539 148.640,98.730 148.700 M169.105 148.683 C 169.602 148.779,170.322 148.775,170.705 148.675 C 171.087 148.575,170.680 148.496,169.800 148.501 C 168.920 148.505,168.607 148.587,169.105 148.683 M183.300 148.700 C 189.845 148.761,200.555 148.761,207.100 148.700 C 213.645 148.638,208.290 148.588,195.200 148.588 C 182.110 148.588,176.755 148.638,183.300 148.700 M245.500 148.682 C 245.995 148.778,246.805 148.778,247.300 148.682 C 247.795 148.587,247.390 148.509,246.400 148.509 C 245.410 148.509,245.005 148.587,245.500 148.682 M262.870 148.700 C 270.939 148.760,284.259 148.760,292.470 148.700 C 300.682 148.639,294.080 148.590,277.800 148.590 C 261.520 148.590,254.802 148.639,262.870 148.700 M341.670 148.700 C 349.739 148.760,363.059 148.760,371.270 148.700 C 379.482 148.639,372.880 148.590,356.600 148.590 C 340.320 148.590,333.602 148.639,341.670 148.700 M387.105 148.683 C 387.602 148.779,388.322 148.775,388.705 148.675 C 389.087 148.575,388.680 148.496,387.800 148.501 C 386.920 148.505,386.607 148.587,387.105 148.683 M3.392 185.800 C 3.392 206.040,3.440 214.379,3.500 204.330 C 3.559 194.282,3.559 177.722,3.500 167.530 C 3.440 157.339,3.392 165.560,3.392 185.800 M307.365 156.000 C 307.365 159.850,307.425 161.425,307.498 159.500 C 307.571 157.575,307.571 154.425,307.498 152.500 C 307.425 150.575,307.365 152.150,307.365 156.000 M326.992 185.600 C 326.992 205.730,327.040 213.965,327.100 203.900 C 327.159 193.835,327.159 177.365,327.100 167.300 C 327.040 157.235,326.992 165.470,326.992 185.600 M153.999 156.481 C 153.890 160.376,153.939 163.422,154.110 163.251 C 154.280 163.080,154.370 159.894,154.309 156.170 L 154.198 149.400 153.999 156.481 M222.433 150.130 C 222.525 150.201,223.230 150.666,224.000 151.163 L 225.400 152.066 224.200 151.035 C 223.540 150.468,222.835 150.003,222.633 150.002 C 222.432 150.001,222.342 150.058,222.433 150.130 M237.043 153.223 C 235.809 154.555,234.800 155.842,234.800 156.083 C 234.800 156.323,235.309 155.818,235.931 154.960 C 236.554 154.102,237.730 152.815,238.545 152.100 C 239.361 151.385,239.861 150.800,239.657 150.800 C 239.453 150.800,238.277 151.890,237.043 153.223 M73.217 153.004 C 73.978 153.886,74.923 155.056,75.317 155.604 C 76.009 156.565,76.010 156.554,75.324 155.288 C 74.933 154.566,73.988 153.396,73.223 152.688 L 71.834 151.400 73.217 153.004 M395.600 151.725 C 395.600 151.794,396.185 152.379,396.900 153.025 L 398.200 154.200 397.025 152.900 C 395.930 151.688,395.600 151.416,395.600 151.725 M156.588 185.600 C 156.588 199.570,156.639 205.285,156.700 198.300 C 156.761 191.315,156.761 179.885,156.700 172.900 C 156.639 165.915,156.588 171.630,156.588 185.600 M230.588 185.600 C 230.588 199.130,230.638 204.665,230.700 197.900 C 230.761 191.135,230.761 180.065,230.700 173.300 C 230.638 166.535,230.588 172.070,230.588 185.600 M77.769 170.800 C 77.769 175.310,77.827 177.155,77.898 174.900 C 77.970 172.645,77.970 168.955,77.898 166.700 C 77.827 164.445,77.769 166.290,77.769 170.800 M232.969 170.800 C 232.969 175.310,233.027 177.155,233.098 174.900 C 233.170 172.645,233.170 168.955,233.098 166.700 C 233.027 164.445,232.969 166.290,232.969 170.800 M109.296 185.300 L 109.200 207.200 94.824 207.200 C 86.917 207.200,80.364 207.335,80.262 207.500 C 80.159 207.665,86.636 207.751,94.654 207.690 C 105.710 207.607,109.278 207.462,109.420 207.090 C 109.523 206.821,109.560 196.880,109.500 185.000 L 109.393 163.400 109.296 185.300 M215.107 185.427 L 215.214 207.214 193.427 207.107 C 181.444 207.048,171.776 207.137,171.943 207.304 C 172.110 207.470,181.956 207.560,193.824 207.504 L 215.400 207.400 215.504 185.824 C 215.560 173.956,215.470 164.110,215.304 163.943 C 215.137 163.776,215.048 173.444,215.107 185.427 M18.565 170.800 C 18.565 174.650,18.625 176.225,18.698 174.300 C 18.771 172.375,18.771 169.225,18.698 167.300 C 18.625 165.375,18.565 166.950,18.565 170.800 M248.165 170.800 C 248.165 174.650,248.225 176.225,248.298 174.300 C 248.371 172.375,248.371 169.225,248.298 167.300 C 248.225 165.375,248.165 166.950,248.165 170.800 M386.163 170.800 C 386.163 174.430,386.223 175.915,386.298 174.100 C 386.372 172.285,386.372 169.315,386.298 167.500 C 386.223 165.685,386.163 167.170,386.163 170.800 M299.233 179.716 C 299.325 179.780,300.120 180.333,301.000 180.945 L 302.600 182.058 301.215 180.829 C 300.453 180.153,299.658 179.600,299.448 179.600 C 299.238 179.600,299.142 179.652,299.233 179.716 M237.486 188.799 C 238.633 189.989,239.631 190.880,239.703 190.781 C 239.776 190.681,238.837 189.708,237.618 188.618 L 235.400 186.636 237.486 188.799 M396.575 188.900 L 395.400 190.200 396.700 189.025 C 397.415 188.379,398.000 187.794,398.000 187.725 C 398.000 187.416,397.670 187.688,396.575 188.900 M77.768 200.200 C 77.768 204.600,77.826 206.455,77.898 204.321 C 77.970 202.188,77.970 198.588,77.899 196.321 C 77.827 194.055,77.768 195.800,77.768 200.200 M307.368 200.200 C 307.368 204.600,307.426 206.455,307.498 204.321 C 307.570 202.188,307.570 198.588,307.499 196.321 C 307.427 194.055,307.368 195.800,307.368 200.200 M18.577 193.315 C 18.469 193.598,18.429 196.883,18.490 200.615 L 18.600 207.400 40.176 207.504 C 52.044 207.560,61.890 207.470,62.057 207.304 C 62.224 207.137,52.559 207.048,40.580 207.107 L 18.800 207.213 18.800 200.200 L 18.800 193.187 40.562 193.293 C 52.531 193.352,62.240 193.265,62.138 193.100 C 61.784 192.527,18.798 192.739,18.577 193.315 M245.905 193.083 C 246.402 193.179,247.122 193.175,247.505 193.075 C 247.887 192.975,247.480 192.896,246.600 192.901 C 245.720 192.905,245.407 192.987,245.905 193.083 M256.000 193.090 C 276.104 193.368,291.907 193.372,291.738 193.100 C 291.636 192.935,281.798 192.841,269.876 192.891 C 257.954 192.941,251.710 193.031,256.000 193.090 M344.500 193.094 C 345.545 193.176,347.255 193.176,348.300 193.094 C 349.345 193.012,348.490 192.944,346.400 192.944 C 344.310 192.944,343.455 193.012,344.500 193.094 M372.261 193.100 C 372.159 193.265,374.443 193.351,377.337 193.292 C 385.886 193.117,386.678 192.949,379.324 192.872 C 375.542 192.832,372.363 192.935,372.261 193.100 M387.105 193.083 C 387.602 193.179,388.322 193.175,388.705 193.075 C 389.087 192.975,388.680 192.896,387.800 192.901 C 386.920 192.905,386.607 192.987,387.105 193.083 M379.400 200.400 C 382.694 203.700,385.480 206.400,385.590 206.400 C 385.700 206.400,383.094 203.700,379.800 200.400 C 376.506 197.100,373.720 194.400,373.610 194.400 C 373.500 194.400,376.106 197.100,379.400 200.400 M125.134 207.295 C 125.297 207.457,131.813 207.637,139.615 207.695 L 153.800 207.800 153.909 215.098 L 154.018 222.396 117.109 222.501 L 80.200 222.606 117.200 222.603 L 154.200 222.600 154.309 215.100 C 154.369 210.975,154.369 207.562,154.309 207.515 C 153.991 207.266,124.885 207.046,125.134 207.295 M262.838 207.100 C 242.255 207.175,233.720 207.334,233.338 207.652 C 232.917 208.000,232.819 209.682,232.886 215.349 L 232.973 222.600 233.186 215.200 L 233.400 207.800 262.383 207.697 C 280.902 207.632,291.509 207.451,291.763 207.197 C 291.981 206.979,292.079 206.844,291.980 206.897 C 291.881 206.951,278.767 207.042,262.838 207.100 M309.862 207.500 C 309.760 207.665,313.079 207.800,317.238 207.800 C 321.397 207.800,324.800 207.665,324.800 207.500 C 324.800 207.335,321.481 207.200,317.424 207.200 C 313.367 207.200,309.964 207.335,309.862 207.500 M390.120 207.498 C 392.055 207.572,395.115 207.571,396.920 207.497 C 398.724 207.423,397.140 207.363,393.400 207.364 C 389.660 207.364,388.184 207.425,390.120 207.498 M324.963 214.800 C 324.963 218.430,325.023 219.915,325.098 218.100 C 325.172 216.285,325.172 213.315,325.098 211.500 C 325.023 209.685,324.963 211.170,324.963 214.800 M74.681 216.239 C 74.286 216.768,74.108 217.200,74.285 217.200 C 74.634 217.200,75.738 215.601,75.528 215.400 C 75.457 215.333,75.077 215.711,74.681 216.239 M304.281 216.239 C 303.886 216.768,303.708 217.200,303.885 217.200 C 304.234 217.200,305.338 215.601,305.128 215.400 C 305.057 215.333,304.677 215.711,304.281 216.239 M70.641 220.027 C 69.783 220.672,69.200 221.200,69.346 221.200 C 69.800 221.200,72.390 219.416,72.395 219.100 C 72.402 218.699,72.422 218.688,70.641 220.027 M161.967 219.345 C 162.500 220.001,164.000 220.993,164.000 220.689 C 164.000 220.613,163.415 220.122,162.700 219.599 C 161.896 219.010,161.616 218.913,161.967 219.345 M300.600 219.812 C 299.940 220.353,299.186 220.797,298.924 220.798 C 298.662 220.799,298.337 220.978,298.203 221.195 C 297.899 221.688,298.956 221.273,300.703 220.214 C 301.416 219.781,302.000 219.286,302.000 219.114 C 302.000 218.680,301.954 218.703,300.600 219.812 M378.000 220.800 C 378.507 221.240,379.013 221.600,379.123 221.600 C 379.234 221.600,378.998 221.240,378.600 220.800 C 378.202 220.360,377.696 220.000,377.477 220.000 C 377.257 220.000,377.493 220.360,378.000 220.800 M334.800 222.400 L 327.400 222.627 334.676 222.714 C 339.191 222.767,342.047 222.648,342.200 222.400 C 342.336 222.180,342.392 222.039,342.324 222.086 C 342.256 222.134,338.870 222.275,334.800 222.400 M19.330 222.700 C 27.871 222.760,41.731 222.760,50.130 222.700 C 58.528 222.640,51.540 222.590,34.600 222.590 C 17.660 222.590,10.788 222.640,19.330 222.700 M181.300 222.700 C 188.065 222.761,199.135 222.761,205.900 222.700 C 212.665 222.638,207.130 222.588,193.600 222.588 C 180.070 222.588,174.535 222.638,181.300 222.700 M248.930 222.700 C 257.471 222.760,271.331 222.760,279.730 222.700 C 288.128 222.640,281.140 222.590,264.200 222.590 C 247.260 222.590,240.388 222.640,248.930 222.700 M313.500 222.698 C 315.535 222.771,318.865 222.771,320.900 222.698 C 322.935 222.625,321.270 222.566,317.200 222.566 C 313.130 222.566,311.465 222.625,313.500 222.698 M386.100 222.699 C 388.685 222.768,392.915 222.768,395.500 222.699 C 398.085 222.629,395.970 222.572,390.800 222.572 C 385.630 222.572,383.515 222.629,386.100 222.699 " stroke="none" fill="#ececec" fill-rule="evenodd"></path><path id="path3" d="M4.187 149.293 C 4.081 149.572,4.040 166.090,4.097 186.000 L 4.200 222.200 32.767 222.303 C 70.007 222.437,71.296 222.187,75.292 214.076 L 76.600 211.421 76.727 201.610 C 76.808 195.321,76.697 191.269,76.417 190.321 C 75.961 188.778,73.519 186.400,72.389 186.400 C 71.723 186.400,70.800 185.657,70.800 185.120 C 70.800 184.944,71.205 184.799,71.700 184.797 C 72.837 184.794,74.471 183.726,75.671 182.201 C 76.591 181.031,76.600 180.915,76.600 170.210 L 76.600 159.400 75.454 157.138 C 73.464 153.212,70.111 150.590,65.536 149.383 C 62.571 148.601,4.483 148.515,4.187 149.293 M80.978 149.313 C 80.869 149.598,80.829 152.794,80.890 156.415 L 81.000 163.000 95.500 163.105 C 109.666 163.208,110.000 163.228,110.004 164.005 C 110.006 164.442,110.007 174.160,110.007 185.600 C 110.007 197.040,110.006 206.758,110.004 207.195 C 110.000 207.972,109.666 207.992,95.500 208.095 L 81.000 208.200 81.000 215.200 L 81.000 222.200 117.200 222.200 L 153.400 222.200 153.400 215.200 L 153.400 208.200 138.800 208.000 L 124.200 207.800 124.200 185.600 L 124.200 163.400 138.800 163.200 L 153.400 163.000 153.400 156.000 L 153.400 149.000 117.288 148.898 C 88.044 148.815,81.139 148.894,80.978 149.313 M168.387 149.399 C 162.678 150.961,158.921 154.755,157.400 160.492 C 156.530 163.778,156.568 207.230,157.445 210.583 C 159.100 216.913,162.842 220.383,169.526 221.786 C 173.733 222.669,212.804 222.692,217.393 221.814 C 224.480 220.458,228.305 216.705,229.789 209.652 C 230.686 205.386,230.690 165.831,229.794 161.569 C 228.381 154.853,224.615 150.791,218.400 149.279 C 215.722 148.628,170.812 148.736,168.387 149.399 M244.600 149.556 C 235.881 152.067,233.597 156.472,233.604 170.766 C 233.610 182.099,234.221 184.512,238.059 188.334 C 242.443 192.701,243.045 192.786,269.804 192.786 C 282.092 192.786,292.298 192.938,292.483 193.123 C 292.668 193.308,292.770 196.686,292.710 200.630 L 292.600 207.800 263.200 208.000 L 233.800 208.200 233.800 215.200 L 233.800 222.200 262.367 222.303 C 299.607 222.437,300.896 222.187,304.892 214.076 L 306.200 211.420 306.318 200.443 L 306.437 189.466 305.234 186.948 C 303.924 184.205,301.479 181.563,299.153 180.376 C 295.278 178.399,295.655 178.426,271.227 178.406 C 258.592 178.396,248.194 178.327,248.119 178.253 C 248.045 178.178,247.967 174.806,247.946 170.759 L 247.907 163.400 277.054 163.200 L 306.200 163.000 306.200 156.000 L 306.200 149.000 276.600 148.932 C 249.619 148.870,246.788 148.926,244.600 149.556 M328.100 149.062 C 327.705 149.224,327.600 156.914,327.600 185.626 L 327.600 221.985 328.500 222.207 C 328.995 222.329,332.100 222.378,335.400 222.315 L 341.400 222.200 341.505 207.500 C 341.586 196.166,341.723 192.791,342.105 192.762 C 342.377 192.741,344.490 192.753,346.800 192.787 L 351.000 192.850 365.000 206.807 C 381.800 223.555,379.414 222.136,391.100 222.324 L 400.000 222.467 400.000 215.233 L 400.000 208.000 393.100 207.998 L 386.200 207.996 379.008 200.823 C 375.053 196.878,371.753 193.459,371.675 193.225 C 371.503 192.710,371.016 192.737,379.742 192.767 C 387.467 192.792,389.345 192.505,392.842 190.764 C 395.042 189.668,398.800 186.036,398.800 185.006 C 398.800 184.726,399.070 184.274,399.400 184.000 C 399.910 183.577,400.000 181.619,400.000 170.943 L 400.000 158.384 398.953 156.692 C 396.594 152.877,393.388 150.512,389.000 149.350 C 387.012 148.823,329.352 148.551,328.100 149.062 M63.000 170.800 L 63.000 178.200 40.700 178.303 C 22.995 178.385,18.399 178.303,18.394 177.903 C 18.374 176.096,18.359 163.743,18.378 163.497 C 18.390 163.330,28.435 163.240,40.700 163.297 L 63.000 163.400 63.000 170.800 M216.000 185.600 L 216.000 208.000 193.600 208.000 L 171.200 208.000 171.200 185.600 L 171.200 163.200 193.600 163.200 L 216.000 163.200 216.000 185.600 M386.419 163.600 C 386.429 163.820,386.437 167.060,386.437 170.800 C 386.437 174.540,386.429 177.780,386.419 178.000 C 386.406 178.262,378.654 178.400,364.000 178.400 L 341.600 178.400 341.600 170.800 L 341.600 163.200 364.000 163.200 C 378.654 163.200,386.406 163.338,386.419 163.600 M62.509 192.951 C 63.161 193.115,63.209 193.724,63.109 200.465 L 63.000 207.800 40.700 207.903 C 22.995 207.985,18.399 207.903,18.394 207.503 C 18.280 197.430,18.376 193.062,18.716 192.852 C 19.169 192.572,61.384 192.668,62.509 192.951 M310.581 208.506 C 310.470 208.794,310.429 211.994,310.490 215.615 L 310.600 222.200 316.600 222.315 C 325.224 222.479,324.363 223.290,324.274 215.099 L 324.200 208.200 317.491 208.090 C 312.243 208.004,310.738 208.095,310.581 208.506 " stroke="none" fill="#cccccc" fill-rule="evenodd"></path><path id="path4" d="M64.033 148.944 C 64.125 149.023,64.740 149.208,65.400 149.356 C 66.276 149.552,66.438 149.515,66.000 149.218 C 65.460 148.853,63.632 148.598,64.033 148.944 M80.400 156.000 C 80.400 159.960,80.535 163.200,80.700 163.200 C 80.865 163.200,81.000 159.960,81.000 156.000 C 81.000 152.040,80.865 148.800,80.700 148.800 C 80.535 148.800,80.400 152.040,80.400 156.000 M153.400 156.000 C 153.400 159.918,153.535 163.040,153.700 162.938 C 153.865 162.836,154.000 159.714,154.000 156.000 C 154.000 152.286,153.865 149.164,153.700 149.062 C 153.535 148.960,153.400 152.082,153.400 156.000 M168.000 149.200 C 167.205 149.714,168.204 149.714,169.400 149.200 L 170.200 148.856 169.400 148.834 C 168.960 148.822,168.330 148.987,168.000 149.200 M217.800 149.200 C 218.240 149.389,218.870 149.544,219.200 149.544 C 219.578 149.544,219.504 149.417,219.000 149.200 C 218.560 149.011,217.930 148.856,217.600 148.856 C 217.222 148.856,217.296 148.983,217.800 149.200 M244.800 149.218 C 244.362 149.515,244.524 149.552,245.400 149.356 C 246.871 149.027,247.190 148.798,246.167 148.806 C 245.745 148.809,245.130 148.995,244.800 149.218 M306.200 156.000 C 306.200 160.622,306.343 163.152,306.600 163.067 C 306.846 162.985,307.000 160.267,307.000 156.000 C 307.000 151.733,306.846 149.015,306.600 148.933 C 306.343 148.848,306.200 151.378,306.200 156.000 M327.467 149.067 C 326.751 149.783,327.180 222.401,327.900 222.368 C 328.318 222.350,328.399 222.256,328.100 222.135 C 327.367 221.839,327.367 149.361,328.100 149.065 C 328.379 148.952,328.409 148.849,328.167 148.832 C 327.928 148.814,327.613 148.920,327.467 149.067 M387.633 148.944 C 387.725 149.023,388.340 149.208,389.000 149.356 C 389.876 149.552,390.038 149.515,389.600 149.218 C 389.060 148.853,387.232 148.598,387.633 148.944 M165.100 150.229 C 163.549 151.070,163.725 151.361,165.300 150.559 C 166.808 149.793,167.075 149.594,166.567 149.616 C 166.365 149.625,165.705 149.901,165.100 150.229 M392.600 150.662 C 394.907 151.845,396.429 153.156,398.052 155.360 C 398.683 156.218,399.200 156.754,399.200 156.551 C 399.200 155.003,392.823 149.553,391.089 149.619 C 390.820 149.629,391.500 150.098,392.600 150.662 M69.778 150.894 C 70.206 151.172,71.466 152.204,72.578 153.187 L 74.600 154.973 73.000 153.254 C 72.120 152.308,70.860 151.276,70.200 150.961 C 69.540 150.646,69.350 150.616,69.778 150.894 M162.154 152.091 C 160.837 153.107,160.170 153.856,159.561 155.000 C 159.327 155.440,159.607 155.222,160.184 154.516 C 160.761 153.810,161.810 152.777,162.516 152.221 C 163.222 151.664,163.689 151.207,163.554 151.204 C 163.419 151.202,162.789 151.601,162.154 152.091 M238.638 152.200 C 237.999 152.750,237.652 153.200,237.868 153.200 C 238.084 153.200,238.683 152.750,239.200 152.200 C 240.405 150.918,240.129 150.918,238.638 152.200 M224.800 152.087 C 224.800 152.204,225.544 153.087,226.454 154.049 C 227.572 155.233,227.845 155.411,227.297 154.600 C 226.476 153.385,224.800 151.699,224.800 152.087 M74.760 155.800 C 75.434 157.105,75.988 157.828,75.985 157.400 C 75.983 157.180,75.614 156.550,75.164 156.000 C 74.621 155.336,74.485 155.269,74.760 155.800 M158.181 157.237 C 157.829 157.918,157.612 158.545,157.699 158.632 C 157.786 158.719,158.156 158.162,158.522 157.395 C 159.344 155.670,159.059 155.538,158.181 157.237 M228.828 157.876 C 228.918 158.915,229.544 159.796,229.572 158.924 C 229.587 158.442,229.420 157.936,229.200 157.800 C 228.980 157.664,228.813 157.698,228.828 157.876 M233.873 159.353 C 233.723 159.745,233.611 160.366,233.625 160.733 C 233.642 161.175,233.781 161.074,234.037 160.434 C 234.249 159.903,234.361 159.282,234.285 159.054 C 234.209 158.827,234.024 158.961,233.873 159.353 M157.073 160.153 C 156.923 160.545,156.811 161.166,156.825 161.533 C 156.842 161.975,156.981 161.874,157.237 161.234 C 157.449 160.703,157.561 160.082,157.485 159.854 C 157.409 159.627,157.224 159.761,157.073 160.153 M229.675 160.600 C 229.686 161.040,229.832 161.940,230.000 162.600 L 230.305 163.800 230.325 162.600 C 230.335 161.940,230.189 161.040,230.000 160.600 L 229.656 159.800 229.675 160.600 M76.887 170.600 C 76.883 175.961,77.021 179.758,77.200 179.200 C 77.607 177.929,77.607 163.799,77.200 162.200 C 77.032 161.540,76.891 165.320,76.887 170.600 M62.600 170.800 C 62.600 174.938,62.735 178.240,62.900 178.138 C 63.065 178.036,63.200 174.734,63.200 170.800 C 63.200 166.866,63.065 163.564,62.900 163.462 C 62.735 163.360,62.600 166.662,62.600 170.800 M109.507 185.540 C 109.448 197.893,109.535 208.000,109.700 208.000 C 109.865 208.000,110.002 207.595,110.004 207.100 C 110.077 189.925,109.962 163.428,109.813 163.280 C 109.703 163.170,109.565 173.187,109.507 185.540 M124.184 163.700 C 123.621 165.169,124.214 207.738,124.800 207.932 C 125.296 208.096,125.312 208.024,124.893 207.516 C 124.495 207.033,124.409 202.225,124.493 185.051 C 124.552 173.033,124.549 163.200,124.487 163.200 C 124.426 163.200,124.289 163.425,124.184 163.700 M341.600 170.800 C 341.600 174.980,341.735 178.400,341.900 178.400 C 342.065 178.400,342.200 174.980,342.200 170.800 C 342.200 166.620,342.065 163.200,341.900 163.200 C 341.735 163.200,341.600 166.620,341.600 170.800 M76.400 180.837 C 76.400 181.486,74.891 183.283,73.671 184.089 C 73.082 184.477,72.825 184.796,73.100 184.797 C 73.803 184.801,76.800 181.726,76.800 181.000 C 76.800 180.670,76.710 180.400,76.600 180.400 C 76.490 180.400,76.400 180.597,76.400 180.837 M233.628 181.076 C 233.613 181.558,233.780 182.064,234.000 182.200 C 234.473 182.492,234.473 182.101,234.000 181.000 C 233.669 180.229,233.655 180.231,233.628 181.076 M300.544 181.109 C 300.860 181.621,303.200 183.353,303.200 183.075 C 303.200 182.976,302.539 182.391,301.732 181.775 C 300.924 181.159,300.389 180.859,300.544 181.109 M234.400 183.353 C 234.400 183.782,235.590 186.000,235.821 186.000 C 235.931 186.000,235.723 185.415,235.359 184.700 C 234.617 183.240,234.400 182.936,234.400 183.353 M304.152 184.967 C 304.728 185.816,305.200 186.697,305.200 186.922 C 305.200 187.148,305.303 187.230,305.429 187.104 C 305.738 186.795,304.619 184.680,303.778 183.982 C 303.407 183.674,303.575 184.117,304.152 184.967 M399.280 184.080 C 399.016 184.344,398.800 184.775,398.800 185.037 C 398.800 186.014,395.007 189.685,392.843 190.803 C 391.609 191.440,390.820 191.970,391.088 191.981 C 392.775 192.047,397.660 187.907,399.119 185.175 C 400.015 183.496,400.041 183.319,399.280 184.080 M70.800 185.120 C 70.800 185.516,71.659 186.400,72.043 186.400 C 72.198 186.400,72.231 186.040,72.116 185.600 C 71.918 184.844,70.800 184.436,70.800 185.120 M73.400 186.657 C 75.437 188.464,76.187 188.991,75.402 188.063 C 74.966 187.548,74.247 186.941,73.804 186.714 C 73.362 186.487,73.180 186.462,73.400 186.657 M237.633 188.500 C 237.725 188.555,238.340 189.050,239.000 189.600 L 240.200 190.600 239.230 189.500 C 238.697 188.895,238.082 188.400,237.864 188.400 C 237.645 188.400,237.542 188.445,237.633 188.500 M306.493 200.400 C 306.492 206.589,306.614 209.610,306.823 208.600 C 307.234 206.613,307.216 193.435,306.800 191.800 C 306.632 191.140,306.494 195.010,306.493 200.400 M76.886 200.600 C 76.890 206.703,77.013 209.617,77.223 208.600 C 77.644 206.565,77.626 193.329,77.200 192.000 C 77.021 191.441,76.882 195.237,76.886 200.600 M244.800 192.382 C 245.130 192.605,245.745 192.791,246.167 192.794 C 247.190 192.802,246.871 192.573,245.400 192.244 C 244.524 192.048,244.362 192.085,244.800 192.382 M388.400 192.400 C 387.576 192.664,387.541 192.726,388.200 192.754 C 388.640 192.773,389.270 192.613,389.600 192.400 C 390.301 191.947,389.814 191.947,388.400 192.400 M342.110 192.724 C 341.741 192.958,341.593 196.657,341.510 207.680 C 341.449 215.734,341.535 222.241,341.700 222.138 C 341.865 222.036,342.000 215.519,342.000 207.656 C 342.000 197.070,342.125 193.235,342.480 192.880 C 343.024 192.336,342.841 192.259,342.110 192.724 M62.718 199.856 C 62.807 205.155,62.709 207.028,62.318 207.502 C 61.885 208.027,61.899 208.098,62.400 207.932 C 63.059 207.715,63.539 193.780,62.910 193.149 C 62.739 192.978,62.653 195.996,62.718 199.856 M292.318 199.856 C 292.407 205.155,292.309 207.028,291.918 207.502 C 291.485 208.027,291.499 208.098,292.000 207.932 C 292.659 207.715,293.139 193.780,292.510 193.149 C 292.339 192.978,292.253 195.996,292.318 199.856 M365.216 207.300 C 373.042 215.165,379.699 221.600,380.011 221.600 C 380.328 221.600,380.142 221.312,379.589 220.946 C 379.045 220.586,372.387 214.151,364.794 206.646 L 350.989 193.000 365.216 207.300 M371.696 193.288 C 371.763 193.488,375.053 196.878,379.008 200.823 L 386.200 207.996 393.200 207.908 L 400.200 207.820 393.177 207.701 L 386.154 207.582 378.865 200.254 C 374.856 196.224,371.630 193.089,371.696 193.288 M29.900 207.900 C 35.675 207.962,45.125 207.962,50.900 207.900 C 56.675 207.837,51.950 207.786,40.400 207.786 C 28.850 207.786,24.125 207.837,29.900 207.900 M80.900 207.865 C 80.343 208.090,80.146 222.400,80.700 222.400 C 80.865 222.400,81.000 219.205,81.000 215.300 L 81.000 208.200 94.800 207.992 L 108.600 207.784 95.000 207.724 C 87.520 207.690,81.175 207.754,80.900 207.865 M139.600 207.992 L 153.400 208.200 153.400 215.262 C 153.400 219.146,153.535 222.241,153.700 222.139 C 154.227 221.812,154.058 208.618,153.520 208.080 C 153.162 207.722,149.585 207.623,139.420 207.692 L 125.800 207.784 139.600 207.992 M183.300 207.900 C 188.965 207.962,198.235 207.962,203.900 207.900 C 209.565 207.837,204.930 207.786,193.600 207.786 C 182.270 207.786,177.635 207.837,183.300 207.900 M229.840 209.240 C 229.693 210.157,229.652 210.985,229.747 211.080 C 229.842 211.176,230.046 210.510,230.200 209.600 C 230.354 208.690,230.396 207.862,230.293 207.760 C 230.190 207.657,229.987 208.323,229.840 209.240 M233.862 207.900 C 233.693 208.172,254.287 208.169,280.800 207.892 C 286.410 207.834,278.186 207.744,262.524 207.693 C 246.862 207.642,233.964 207.735,233.862 207.900 M310.500 207.865 C 309.943 208.090,309.746 222.400,310.300 222.400 C 310.465 222.400,310.600 219.205,310.600 215.300 L 310.600 208.200 317.200 207.985 L 323.800 207.770 317.400 207.716 C 313.880 207.687,310.775 207.754,310.500 207.865 M324.280 214.908 C 324.338 219.876,324.228 221.872,323.880 222.119 C 323.541 222.360,323.577 222.413,324.000 222.298 C 324.668 222.116,325.160 209.000,324.523 208.363 C 324.345 208.185,324.236 211.131,324.280 214.908 M156.868 209.400 C 156.862 209.840,157.011 210.560,157.200 211.000 C 157.638 212.019,157.638 210.968,157.200 209.600 C 156.943 208.796,156.877 208.757,156.868 209.400 M76.108 212.200 C 75.009 215.864,72.118 219.022,68.200 220.840 C 67.320 221.248,66.887 221.586,67.238 221.591 C 70.152 221.631,77.229 213.916,76.715 211.259 C 76.645 210.896,76.372 211.320,76.108 212.200 M305.708 212.200 C 304.609 215.864,301.718 219.022,297.800 220.840 C 296.920 221.248,296.487 221.586,296.838 221.591 C 299.752 221.631,306.829 213.916,306.315 211.259 C 306.245 210.896,305.972 211.320,305.708 212.200 M229.246 211.867 C 229.221 212.124,229.084 212.664,228.941 213.067 C 228.740 213.636,228.794 213.697,229.179 213.342 C 229.452 213.091,229.589 212.551,229.484 212.142 C 229.379 211.734,229.272 211.610,229.246 211.867 M227.452 215.665 C 226.853 216.580,226.653 217.088,227.008 216.794 C 227.612 216.292,228.985 214.000,228.681 214.000 C 228.605 214.000,228.052 214.749,227.452 215.665 M159.974 216.701 C 160.805 217.927,162.661 219.526,164.000 220.171 C 164.330 220.329,164.060 220.047,163.400 219.543 C 162.740 219.039,161.501 217.901,160.646 217.013 C 159.255 215.569,159.184 215.537,159.974 216.701 M223.618 219.450 C 221.736 220.786,221.571 221.018,223.029 220.277 C 223.705 219.934,224.492 219.371,224.778 219.026 C 225.460 218.205,225.277 218.272,223.618 219.450 M165.800 221.200 C 165.936 221.420,166.442 221.587,166.924 221.572 C 167.769 221.545,167.771 221.531,167.000 221.200 C 165.899 220.727,165.508 220.727,165.800 221.200 M220.200 221.200 C 219.429 221.531,219.431 221.545,220.276 221.572 C 220.758 221.587,221.264 221.420,221.400 221.200 C 221.692 220.727,221.301 220.727,220.200 221.200 M63.400 222.000 L 62.200 222.305 63.400 222.325 C 64.060 222.335,64.960 222.189,65.400 222.000 L 66.200 221.656 65.400 221.675 C 64.960 221.686,64.060 221.832,63.400 222.000 M168.600 222.000 C 169.040 222.189,169.940 222.335,170.600 222.325 L 171.800 222.305 170.600 222.000 C 169.940 221.832,169.040 221.686,168.600 221.675 L 167.800 221.656 168.600 222.000 M216.400 222.000 C 215.043 222.286,215.037 222.295,216.200 222.307 C 216.860 222.315,217.850 222.176,218.400 222.000 C 219.712 221.580,218.396 221.580,216.400 222.000 M293.000 222.000 L 291.800 222.305 293.000 222.325 C 293.660 222.335,294.560 222.189,295.000 222.000 L 295.800 221.656 295.000 221.675 C 294.560 221.686,293.660 221.832,293.000 222.000 M381.200 221.994 C 381.530 222.211,382.235 222.391,382.767 222.394 C 384.051 222.402,383.725 222.175,382.000 221.858 C 381.015 221.677,380.778 221.718,381.200 221.994 " stroke="none" fill="#dcdcdc" fill-rule="evenodd"></path></g></svg>